# xmcd
#
# Track frame offsets: 
#        150
#        35077
#        58652
#        96837
#        136642
#        161564
#        185793
#        219106
#        251973
#        284748
#
# Disc length: 4122 seconds
#
# Revision: 0
# Processed by: cddbd v1.5.2PL0 Copyright (c) Steve Scherf et al.
# Submitted via: ExactAudioCopy v1.0b3
#
DISCID=9810180a
DTITLE=Various Artist - Woman Trance Voices Vol. 5 CD1
DYEAR=2012
DGENRE=Vocal Trance
TTITLE0=Moonbeam feat. Tumomi Ukumori - Sensitivity (Aerofeel 5 Remix)
TTITLE1=tyDi feat. Protoculture and Meighan Nealon - Criminal
TTITLE2=Aly and Fila feat. Jwaydan - We Control The Sunlight (Original)
TTITLE3=Allure feat. Jes - Show Me The Way (Solarstone Remix)
TTITLE4=Jes feat. BT - The Light In Things
TTITLE5=Orjan Nilsen feat. Neev Kennedy - Anywhere But Here
TTITLE6=Wezz Devall feat. Isa Maria - Find This Dream (Original)
TTITLE7=Dark Matters feat. Ana Criado - The Quest Of Dream (Paul Webst
TTITLE7=er Remix)
TTITLE8=Susana - Home (Daniel Kandi's Restrofit Mix)
TTITLE9=Betsie Larkin and Lange - Obvious
EXTD=
EXTT0=
EXTT1=
EXTT2=
EXTT3=
EXTT4=
EXTT5=
EXTT6=
EXTT7=
EXTT8=
EXTT9=
PLAYORDER=
